<?xml version="1.0" encoding="utf-8"?>
<!-- Generator: Adobe Illustrator 17.1.0, SVG Export Plug-In . SVG Version: 6.00 Build 0)  -->
<!DOCTYPE svg PUBLIC "-//W3C//DTD SVG 1.1//EN" "http://www.w3.org/Graphics/SVG/1.1/DTD/svg11.dtd">
<svg version="1.1" id="Layer_1" xmlns="http://www.w3.org/2000/svg" xmlns:xlink="http://www.w3.org/1999/xlink" x="0px" y="0px"
	 viewBox="0 0 27.9 27.5" enable-background="new 0 0 27.9 27.5" xml:space="preserve">
<g>
	<path fill="#1E27A3" d="M13.8,27.5c-3.2,0-6.3-1.1-8.8-3.2C2.1,22,0.4,18.7,0.1,15c-0.7-7.5,4.9-14.3,12.4-15
		c3.4-0.3,6.5,0.6,9.4,2.9c0.2,0.2,0.6,0.4,0.9,0.3c0.2-0.1,0.4-0.4,0.5-0.9l4.7,0.3c-0.1,2.1-1.4,4-3.2,4.8C22.9,8.3,20.8,8,19,6.6
		c-2-1.5-3.9-2.1-6.1-1.9c-5,0.5-8.7,4.9-8.2,9.9C4.9,17,6.1,19.2,8,20.7c1.9,1.5,4.2,2.3,6.6,2.1c2.8-0.3,5.3-1.8,6.8-4.1l3.9,2.5
		C23,24.8,19.3,27,15,27.4C14.6,27.5,14.2,27.5,13.8,27.5z"/>
</g>
</svg>
