<?xml version="1.0" encoding="utf-8"?>
<!-- Generator: Adobe Illustrator 17.1.0, SVG Export Plug-In . SVG Version: 6.00 Build 0)  -->
<!DOCTYPE svg PUBLIC "-//W3C//DTD SVG 1.1//EN" "http://www.w3.org/Graphics/SVG/1.1/DTD/svg11.dtd">
<svg version="1.1" id="Layer_1" xmlns="http://www.w3.org/2000/svg" xmlns:xlink="http://www.w3.org/1999/xlink" x="0px" y="0px"
	 width="151.6px" height="60px" viewBox="6.2 1.1 151.6 60" enable-background="new 6.2 1.1 151.6 60" xml:space="preserve">
<path fill="#43413E" d="M23.3,44.3h-3.3c-0.1,0-0.3,0.1-0.3,0.2l-4.7,11.4l-4.7-11.4c-0.1-0.1-0.2-0.2-0.3-0.2H6.5
	c-0.2,0-0.3,0.2-0.3,0.3v15.8c0,0.2,0.2,0.3,0.3,0.3H9c0.2,0,0.3-0.2,0.3-0.3v-9.8l4.1,9.9c0.1,0.1,0.2,0.2,0.3,0.2h2.1
	c0.1,0,0.3-0.1,0.3-0.2l4.1-9.9v9.8c0,0.2,0.2,0.3,0.3,0.3h2.5c0.2,0,0.3-0.2,0.3-0.3V44.6C23.6,44.4,23.4,44.3,23.3,44.3z
	 M43.3,44.3h-2.5c-0.2,0-0.3,0.2-0.3,0.3v9.6c0,2.4-0.6,3.8-4,3.8c-3.3,0-4-1.4-4-3.8v-9.6c0-0.2-0.2-0.3-0.3-0.3h-2.6
	c-0.2,0-0.3,0.2-0.3,0.3v9.9c0,3.2,0.9,6.5,7.2,6.5c6.4,0,7.3-3.3,7.3-6.5v-9.9C43.6,44.4,43.5,44.3,43.3,44.3z M63.8,60.4V44.6
	c0-0.2-0.2-0.3-0.3-0.3H61c-0.2,0-0.3,0.2-0.3,0.3V55l-7.7-10.6l-0.3-0.1h-2.8c-0.2,0-0.3,0.2-0.3,0.3v15.8c0,0.2,0.2,0.3,0.3,0.3
	h2.5c0.2,0,0.3-0.2,0.3-0.3v-11l8.2,11.2l0.3,0.1h2.4C63.7,60.8,63.8,60.6,63.8,60.4z M77.6,61c3.6,0,5.2-1.2,6.4-2.4l0.1-0.2
	l-0.1-0.2l-1.8-1.8l-0.2-0.1l-0.2,0.1c-0.9,0.9-1.8,1.5-3.9,1.5c-3.6,0-5.2-1.7-5.2-5.4c0-3.6,1.6-5.3,5.2-5.3
	c1.6,0,2.7,0.4,3.8,1.4l0.2,0.1l0.2-0.1l1.9-1.9l0.1-0.2l-0.1-0.2c-1.6-1.5-3.5-2.3-6.1-2.3c-5.5,0-8.5,2.9-8.5,8.5
	C69.2,58.2,72,61,77.6,61z M140,49.5c0-3.6-1.9-5.3-6.1-5.3h-7.2c-0.2,0-0.3,0.2-0.3,0.3v15.8c0,0.2,0.2,0.3,0.3,0.3h2.5
	c0.2,0,0.3-0.2,0.3-0.3V55h3.6l3.2,5.6l0.3,0.2h2.8c0.1,0,0.2-0.1,0.3-0.2l0-0.3l-3.2-5.6C138.8,54,140,52.2,140,49.5z M133.8,52
	h-4.3v-4.7h4.3c2.2,0,2.9,0.6,2.9,2.4C136.7,51.4,135.9,52,133.8,52z M157.7,44.4c-0.1-0.2-0.2-0.2-0.4-0.2h-2.7
	c-0.2,0-0.3,0.1-0.4,0.2l-4.5,6.9l-4.5-6.9c-0.1-0.1-0.2-0.2-0.4-0.2H142c-0.2,0-0.3,0.1-0.4,0.2c-0.1,0.2-0.1,0.3,0,0.5l6.3,9.7
	v5.7c0,0.3,0.2,0.5,0.5,0.5h2.6c0.3,0,0.5-0.2,0.5-0.5l0-5.7l6.3-9.7C157.8,44.7,157.8,44.6,157.7,44.4z M86.3,15.7
	c0,0.9-0.1,1.8,0.3,2.6l0,0c0.4,0.8,1,1.5,1.8,1.9c0,0,0.8,0.9,0.6,2.1c-0.1,0.5-0.1,1-0.2,1.5L88,29.6l0,0.7c0,0.3,0.1,0.6,0.2,1
	c0.3,0.9,1.1,1.4,2,1.4c1,0,1.9-0.7,2.2-1.8c0-0.1,0-0.3,0-0.4l0,0l0-0.1l-0.1-2.3l-0.7-7.7c-0.1-1.5-0.2-4.2-0.2-4.9l-0.1-5l0-0.2
	V1.3l-0.1-0.1c-0.3-0.1-0.9-0.2-1.2-0.2c-1.6,0-3.2,1.1-3.6,2.7c-0.3,1.1-0.1,2.2-0.1,3.3c0,0.9,0,1.9,0,2.8c0,0.2,0,0.4,0,0.6
	c0,0.6,0,1.3,0,1.9C86.3,13.5,86.3,14.6,86.3,15.7z M90.3,24.2L90.3,24.2l0.1,0l0.2,6v0.1c0,0.3-0.2,0.5-0.5,0.5
	c-0.3,0-0.5-0.2-0.5-0.5L90.3,24.2z M89.5,3.2l0.1,0l0,0.1v5.3l0.2,8.8c0,0.5-0.4,0.9-0.9,0.9c-0.5,0-0.8-0.3-0.9-0.9
	c0-0.6,0-1.2,0-1.9c0-1.1,0-2.2,0-3.3c0-2,0-4,0-5.9c0-0.2,0-0.4,0-0.6C88,5.6,87.8,3.7,89.5,3.2z M102,44.3h-2.6
	c-0.2,0-0.3,0.2-0.3,0.3v7h-7.7v-7c0-0.2-0.2-0.3-0.3-0.3h-2.6c-0.2,0-0.3,0.2-0.3,1.3v14.7c0,0-0.1,0.5,0.6,0.5H91
	c0.2,0,0.3-0.2,0.3-0.3v-5.6h7.7v5.6c0,0.2,0.2,0.3,0.3,0.3h2.3c0,0,0,0,0,0c0,0,0.6,0,0.6-0.5V45.5C102.3,44.4,102.2,44.3,102,44.3
	z M120,57.7h-8.3v-2.9h8c0.2,0,0.3-0.2,0.3-0.3V52c0-0.2-0.2-0.3-0.3-0.3h-8v-4.2h8.3c0.2,0,0.3-0.2,0.3-0.3v-2.5
	c0-0.2-0.2-0.3-0.3-0.3h-11.2c-0.2,0-0.3,0.2-0.3,1.3v14.6c0,0-0.1,0.6,0.6,0.6h11c0.2,0,0.3-0.2,0.3-0.3V58
	C120.3,57.8,120.2,57.7,120,57.7z M74.2,12.8c-0.1,1.2-0.2,2.4-0.3,3.6c-0.1,1.3-0.2,2.6-0.4,4c-0.1,1.2-0.2,2.4-0.3,3.6
	c-0.1,0.8-0.2,1.6-0.2,2.4c-0.1,0.9-0.1,1.8-0.2,2.7c-0.1,0.9-0.2,1.8,0.4,2.5c0.5,0.6,1.2,1.1,2,1.1c0.7,0,1.4-0.3,1.9-0.9
	c0.6-0.6,0.6-1.4,0.6-2.2c0-1-0.1-2-0.2-3c-0.1-0.6-0.1-1.2-0.2-1.7c0-0.5-0.1-1-0.1-1.5c-0.2-2.3-0.5-4.7-0.7-7
	c-0.1-0.6-0.1-1.3-0.2-1.9c0-0.1-0.2-1.7-0.1-1.7c1.5-0.4,2.4-1.8,2.6-3.3l0-0.3c0-2.1,0-4.3-0.1-6.4c0-0.3,0-0.6,0-0.8
	c0-0.2-0.1-0.3-0.2-0.3h-1.2c-0.1,0-0.2,0.1-0.2,0.3L77,9.8c-0.1,0.3-0.3,0.3-0.5,0.3L76.3,10c-0.2-0.1-0.2-0.4-0.2-0.5l0-0.1L76,2
	c0-0.2-0.1-0.3-0.2-0.3h-1.2c-0.1,0-0.2,0.1-0.2,0.3l-0.1,7.8c-0.1,0.3-0.3,0.3-0.5,0.3c-0.2,0-0.3-0.1-0.5-0.3L73.2,2
	c0-0.2-0.1-0.3-0.2-0.3h-1.2c-0.1,0-0.2,0.1-0.2,0.3l-0.1,7.5l0,0.1c0,0.4,0.1,0.8,0.3,1.1C72.3,11.7,73.2,12.5,74.2,12.8z
	 M75.2,20.2L75.2,20.2l0.1,0l0.6,9.8l0,0.2c0,0.4-0.2,0.8-0.6,0.8c-0.3,0-0.6-0.3-0.6-0.7L75.2,20.2z"/>
</svg>
